<svg xmlns="http://www.w3.org/2000/svg" viewBox="0 0 200 200" role="img" aria-label="ZINGSA CORS server">
  <defs>
    <linearGradient id="rack" x1="0" y1="0" x2="1" y2="0">
      <stop offset="0%" stop-color="#1e293b"/>
      <stop offset="100%" stop-color="#0f172a"/>
    </linearGradient>
  </defs>
  <ellipse cx="100" cy="176" rx="76" ry="10" fill="#0b1220" opacity="0.35"/>
  <rect x="48" y="28" width="104" height="138" rx="8" fill="url(#rack)" stroke="#334155" stroke-width="2"/>
  <rect x="58" y="42" width="84" height="18" rx="3" fill="#111827" stroke="#00d4ff" stroke-width="1.5"/>
  <rect x="58" y="68" width="84" height="18" rx="3" fill="#111827" stroke="#a78bfa" stroke-width="1.5"/>
  <rect x="58" y="94" width="84" height="18" rx="3" fill="#111827" stroke="#22c55e" stroke-width="1.5"/>
  <rect x="58" y="120" width="84" height="18" rx="3" fill="#111827" stroke="#f59e0b" stroke-width="1.5"/>
  <circle cx="70" cy="51" r="3" fill="#22c55e"/>
  <circle cx="70" cy="77" r="3" fill="#22c55e"/>
  <circle cx="70" cy="103" r="3" fill="#eab308"/>
  <circle cx="70" cy="129" r="3" fill="#22c55e"/>
  <rect x="82" y="48" width="42" height="4" rx="1" fill="#475569"/>
  <rect x="82" y="74" width="50" height="4" rx="1" fill="#475569"/>
  <rect x="82" y="100" width="36" height="4" rx="1" fill="#475569"/>
  <rect x="82" y="126" width="44" height="4" rx="1" fill="#475569"/>
</svg>
