<svg xmlns="http://www.w3.org/2000/svg" viewBox="0 0 200 200" role="img" aria-label="Leica GR50 GNSS receiver">
  <defs>
    <linearGradient id="body" x1="0" y1="0" x2="1" y2="1">
      <stop offset="0%" stop-color="#f8fafc"/>
      <stop offset="100%" stop-color="#cbd5e1"/>
    </linearGradient>
    <linearGradient id="panel" x1="0" y1="0" x2="0" y2="1">
      <stop offset="0%" stop-color="#1e293b"/>
      <stop offset="100%" stop-color="#0f172a"/>
    </linearGradient>
  </defs>
  <ellipse cx="100" cy="172" rx="70" ry="10" fill="#0b1220" opacity="0.35"/>
  <rect x="42" y="48" width="116" height="108" rx="14" fill="url(#body)" stroke="#64748b" stroke-width="2"/>
  <rect x="54" y="62" width="92" height="52" rx="8" fill="url(#panel)"/>
  <rect x="62" y="72" width="36" height="10" rx="2" fill="#00d4ff" opacity="0.85"/>
  <rect x="62" y="88" width="52" height="6" rx="2" fill="#334155"/>
  <rect x="62" y="98" width="40" height="6" rx="2" fill="#334155"/>
  <circle cx="132" cy="86" r="8" fill="#22c55e"/>
  <rect x="58" y="124" width="18" height="10" rx="2" fill="#475569"/>
  <rect x="82" y="124" width="18" height="10" rx="2" fill="#475569"/>
  <rect x="106" y="124" width="18" height="10" rx="2" fill="#475569"/>
  <rect x="130" y="124" width="18" height="10" rx="2" fill="#475569"/>
  <path d="M88 34 L100 18 L112 34 Z" fill="#ef4444"/>
</svg>
